<?xml version="1.0" encoding="UTF-8"?>
<svg id="Layer_2" data-name="Layer 2" xmlns="http://www.w3.org/2000/svg" viewBox="0 0 100 100">
  <defs>
    <style>
      .cls-1 {
        fill: none;
        stroke: #d4af37;
        stroke-miterlimit: 10;
      }

      .cls-2 {
        fill: #d4af37;
      }

      .cls-3 {
        fill: #0b3b11;
      }
    </style>
  </defs>
  <g id="Layer_1-2" data-name="Layer 1">
    <g>
      <circle class="cls-3" cx="50" cy="50" r="50"/>
      <g>
        <path class="cls-2" d="M50.11,32.87c-.58.21-.98.61-1.18,1.21-.21.59-.32,1.56-.32,2.89v26.07c0,1.33.11,2.29.32,2.89.21.59.6,1,1.18,1.21.58.21,1.5.35,2.76.42v1.05c-1.61-.1-3.84-.16-6.68-.16-3.01,0-5.26.05-6.73.16v-1.05c1.26-.07,2.18-.21,2.76-.42.58-.21.98-.61,1.18-1.21.21-.6.32-1.56.32-2.89v-28.17l-12.67,34.01h-.84l-13.25-34.11v27.75c0,1.37.12,2.38.34,3.05s.68,1.15,1.34,1.44c.67.3,1.7.48,3.1.55v1.05c-1.26-.1-3.05-.16-5.36-.16-2.1,0-3.73.05-4.89.16v-1.05c1.23-.07,2.14-.25,2.73-.55.59-.3,1-.79,1.21-1.47.21-.68.31-1.69.31-3.02v-25.54c0-1.33-.1-2.29-.31-2.89-.21-.6-.61-1-1.18-1.21-.58-.21-1.5-.35-2.76-.42v-1.05c1.15.1,2.78.16,4.89.16,1.82,0,3.31-.05,4.47-.16l11.57,30.43,11.3-30.27h2.47c2.84,0,5.06-.05,6.68-.16v1.05c-1.26.07-2.18.21-2.76.42Z"/>
        <path class="cls-2" d="M88.5,67.55v1.05c-1.4-.1-3.28-.16-5.62-.16-3.01,0-5.25.05-6.73.16v-1.05c1.33-.07,2.29-.24,2.87-.5s.87-.74.87-1.45c0-.59-.21-1.42-.63-2.47l-3.2-8.62h-12.72l-2.16,5.57c-.7,1.89-1.05,3.33-1.05,4.31,0,1.09.38,1.88,1.13,2.37s1.9.75,3.44.79v1.05c-2-.1-4.01-.16-6.04-.16-1.58,0-2.89.05-3.94.16v-1.05c1.75-.42,3.14-1.94,4.15-4.57l12.35-31.85h.84l12.82,33.06c.84,2.17,2.05,3.29,3.63,3.36ZM75.63,53.47l-5.89-15.71-5.99,15.71h11.88Z"/>
      </g>
      <circle class="cls-1" cx="50" cy="50" r="48"/>
    </g>
  </g>
</svg>